<svg width="240" height="207" viewBox="0 0 240 207" fill="none" xmlns="http://www.w3.org/2000/svg">
<path d="M41.5 5L43.929 1.82199C42.9489 1.07284 41.6779 0.817862 40.4846 1.13101C39.2914 1.44417 38.3094 2.29041 37.8234 3.42432L41.5 5ZM119.5 202.5L116.741 205.397C118.281 206.863 120.7 206.868 122.246 205.408L119.5 202.5ZM236 92.5L238.746 95.4084C239.956 94.2656 240.333 92.4928 239.69 90.9571L236 92.5ZM199 4L202.69 2.4571C202.211 1.30995 201.225 0.451051 200.023 0.133042C198.821 -0.184967 197.539 0.0740764 196.555 0.833979L199 4ZM119.5 147L117.786 150.614L119.477 151.416L121.176 150.632L119.5 147ZM4 92.5L0.32342 90.9243C-0.334921 92.4605 0.0311585 94.244 1.24138 95.3966L4 92.5ZM122.246 205.408L238.746 95.4084L233.254 89.5916L116.754 199.592L122.246 205.408ZM196.555 0.833979L117.555 61.834L122.445 68.166L201.445 7.16602L196.555 0.833979ZM122.429 61.822L43.929 1.82199L39.071 8.17801L117.571 68.178L122.429 61.822ZM239.037 89.8968L206.037 51.3968L199.963 56.6032L232.963 95.1032L239.037 89.8968ZM176.961 50.0057L202.461 6.0057L195.539 1.9943L170.039 45.9943L176.961 50.0057ZM195.013 4.31898L199.013 54.319L206.987 53.681L202.987 3.68102L195.013 4.31898ZM195.31 5.5429L232.31 94.0429L239.69 90.9571L202.69 2.4571L195.31 5.5429ZM170.151 45.8128L154.151 70.3128L160.849 74.6872L176.849 50.1872L170.151 45.8128ZM236.962 88.6174L205.962 80.9353L204.038 88.7004L235.038 96.3826L236.962 88.6174ZM206.004 80.946L158.504 68.6281L156.496 76.3719L203.996 88.6898L206.004 80.946ZM203.797 50.0803L174.297 44.0803L172.703 51.9197L202.203 57.9197L203.797 50.0803ZM208.992 84.5588L206.992 53.741L199.008 54.259L201.008 85.0769L208.992 84.5588ZM172.289 44.1878L118.789 61.1878L121.211 68.8122L174.711 51.8122L172.289 44.1878ZM119.216 68.9223L156.716 76.4223L158.284 68.5777L120.784 61.0777L119.216 68.9223ZM60.7362 115.396L5.73625 88.8965L2.26375 96.1035L57.2638 122.604L60.7362 115.396ZM122.259 199.603L6.75862 89.6034L1.24138 95.3966L116.741 205.397L122.259 199.603ZM7.67658 94.0757L45.1766 6.57568L37.8234 3.42432L0.32342 90.9243L7.67658 94.0757ZM119.205 61.0797L82.2054 68.5797L83.7946 76.4203L120.795 68.9203L119.205 61.0797ZM82.0017 68.6266L33.5017 81.1266L35.4983 88.8734L83.9983 76.3734L82.0017 68.6266ZM33.5448 81.1157L3.04485 88.6157L4.95515 96.3843L35.4552 88.8843L33.5448 81.1157ZM79.1486 73.5802L97.6486 139.544L105.351 137.384L86.8514 71.4198L79.1486 73.5802ZM97.6492 139.546L115.649 203.582L123.351 201.418L105.351 137.381L97.6492 139.546ZM121.214 143.386L103.214 134.849L99.786 142.078L117.786 150.614L121.214 143.386ZM103.166 134.827L60.6655 115.363L57.3345 122.637L99.8345 142.1L103.166 134.827ZM31.2548 87.3385L55.7548 121.338L62.2452 116.662L37.7452 82.6615L31.2548 87.3385ZM55.7609 121.347L116.261 204.847L122.739 200.153L62.2391 116.653L55.7609 121.347ZM37.5164 4.63786L33.0164 54.1379L40.9836 54.8621L45.4836 5.36214L37.5164 4.63786ZM33.0134 54.1732L30.5134 84.6732L38.4866 85.3268L40.9866 54.8268L33.0134 54.1732ZM7.02013 95.1227L40.0201 57.1227L33.9799 51.8773L0.979868 89.8773L7.02013 95.1227ZM38.084 7.08103L64.584 50.581L71.416 46.419L44.916 2.91897L38.084 7.08103ZM64.608 50.62L79.608 74.62L86.392 70.38L71.392 46.38L64.608 50.62ZM37.7601 58.4271L68.7601 52.4271L67.2399 44.5729L36.2399 50.5729L37.7601 58.4271ZM66.7902 52.3127L118.79 68.8127L121.21 61.1873L69.2098 44.6873L66.7902 52.3127ZM153.664 71.366L134.164 137.33L141.836 139.598L161.336 73.634L153.664 71.366ZM134.157 137.353L115.657 201.39L123.343 203.61L141.843 139.574L134.157 137.353ZM136.324 134.832L117.824 143.368L121.176 150.632L139.676 142.096L136.324 134.832ZM234.307 88.8761L180.807 113.876L184.193 121.124L237.693 96.1239L234.307 88.8761ZM180.795 113.881L136.295 134.845L139.705 142.082L184.205 121.119L180.795 113.881ZM201.705 82.5496L179.205 115.232L185.795 119.768L208.295 87.0861L201.705 82.5496ZM179.286 115.118L116.286 200.118L122.714 204.882L185.714 119.882L179.286 115.118Z" fill="#084A83"/>
</svg>
